<svg xmlns="http://www.w3.org/2000/svg" viewBox="0 0 290.18 227.23"><defs><style>.cls-1{fill:#85c55b;}.cls-2{fill:#00b6df;}.cls-3{fill:#715186;}</style></defs><title>commuter_icons</title><g id="Layer_2" data-name="Layer 2"><g id="Layer_1-2" data-name="Layer 1"><path class="cls-1" d="M237.2,116.37c-7.88,0-14.26-6.91-14.26-15.51s6.38-15.5,14.26-15.5,14.27,6.9,14.27,15.5S245.09,116.37,237.2,116.37Zm53,110.56H277.81c-1.53-3-3.48-6.94-5.6-11.18H161.14l-5.59,11.18H143.18c1.87-3.75,9.93-19.86,16.61-33.19h-.9c-5,0-9-4.41-9-9.85V39.76c0-5.43,4-9.84,9-9.84h25.7A11.34,11.34,0,0,1,195,22.44h43.38a11.36,11.36,0,0,1,10.4,7.48h25.7c5,0,9.05,4.41,9.05,9.84V183.89c0,5.44-4.05,9.85-9.05,9.85h-.89C280.25,207.07,288.3,223.18,290.18,226.93ZM195,35.64a4.22,4.22,0,0,0,4,4.39h35.24a4.41,4.41,0,0,0,0-8.79H199.05A4.23,4.23,0,0,0,195,35.64Zm71.29,168.3-5.11-10.2h-89l-5.11,10.2Zm-94.79-33.39h8.81a5.61,5.61,0,0,0,0-11.18h-8.81a5.61,5.61,0,0,0,0,11.18ZM267,165a5.38,5.38,0,0,0-5.14-5.59H253a5.61,5.61,0,0,0,0,11.18h8.81A5.38,5.38,0,0,0,267,165ZM271.87,59.8c0-5.87-4.38-10.63-9.79-10.63h-90.8c-5.42,0-9.8,4.76-9.8,10.63v72.46c0,5.87,4.38,10.63,9.8,10.63H215V130c0-5.81,9.66-9.19,22.24-9.19s22.23,3.38,22.23,9.19v12.85h2.64c5.41,0,9.79-4.76,9.79-10.63Z"/><path class="cls-2" d="M119.22,74,115.8,58.44a1.44,1.44,0,0,1,1.43-1.86h.4a1.88,1.88,0,0,0,1.85-1.92V48.33a1.88,1.88,0,0,0-1.85-1.91H6a1.88,1.88,0,0,0-1.85,1.91v6.33A1.89,1.89,0,0,0,6,56.58h.4a1.43,1.43,0,0,1,1.43,1.86L4.42,74a2.44,2.44,0,0,1-2.26,1.86H1.85A1.89,1.89,0,0,0,0,77.78V92.94a2.12,2.12,0,0,0,1.84,2A14,14,0,0,1,5.43,96.1a44.48,44.48,0,0,1,5.32,3,42.87,42.87,0,0,0,5.31,3,12.93,12.93,0,0,0,5.31,1.26,12.94,12.94,0,0,0,5.32-1.26,42.87,42.87,0,0,0,5.31-3,44.48,44.48,0,0,1,5.32-3,13.13,13.13,0,0,1,5.32-1.26A13,13,0,0,1,48,96.1a43.82,43.82,0,0,1,5.33,3,43.61,43.61,0,0,0,5.31,3,11.84,11.84,0,0,0,10.63,0,43.71,43.71,0,0,0,5.32-3,42.26,42.26,0,0,1,5.32-3,11.84,11.84,0,0,1,10.63,0,43.61,43.61,0,0,1,5.31,3,45.17,45.17,0,0,0,5.31,3,11.86,11.86,0,0,0,10.64,0,44.48,44.48,0,0,0,5.32-3,43.61,43.61,0,0,1,5.31-3,14,14,0,0,1,2.81-.92A2.3,2.3,0,0,0,127,93V77.78a1.89,1.89,0,0,0-1.85-1.92h-3.69A2.43,2.43,0,0,1,119.22,74ZM19.81,74l2-15.5a2.2,2.2,0,0,1,2.09-1.89H99.72a2.18,2.18,0,0,1,2.09,1.89l2,15.5a1.61,1.61,0,0,1-1.6,1.89H21.41A1.6,1.6,0,0,1,19.81,74Z"/><path class="cls-2" d="M117.07,103a44.59,44.59,0,0,1-5.32,3.05,11.86,11.86,0,0,1-10.64,0,45.68,45.68,0,0,1-5.3-3,42.43,42.43,0,0,0-5.32-3,13.12,13.12,0,0,0-2-.69,10,10,0,0,0-6.56,0,12.33,12.33,0,0,0-2.11.74,42.16,42.16,0,0,0-5.32,3A43.82,43.82,0,0,1,69.22,106a11.84,11.84,0,0,1-10.63,0A43.72,43.72,0,0,1,53.28,103a43.71,43.71,0,0,0-5.33-3,12.87,12.87,0,0,0-5.31-1.27,13,13,0,0,0-5.32,1.27A44.37,44.37,0,0,0,32,103,43,43,0,0,1,26.69,106a13.1,13.1,0,0,1-5.32,1.26A13.09,13.09,0,0,1,16.06,106,43,43,0,0,1,10.75,103a44.37,44.37,0,0,0-5.32-3A14.6,14.6,0,0,0,2,98.83,1.7,1.7,0,0,0,0,100.57c0,1,0,2.33,0,3.37a2.11,2.11,0,0,0,1.83,2,14,14,0,0,1,3.59,1.11,44.48,44.48,0,0,1,5.32,3,42.87,42.87,0,0,0,5.31,3,13.09,13.09,0,0,0,5.31,1.26,13.1,13.1,0,0,0,5.32-1.26,42.87,42.87,0,0,0,5.31-3,44.48,44.48,0,0,1,5.32-3,13,13,0,0,1,5.32-1.26A12.86,12.86,0,0,1,48,107.1a43.82,43.82,0,0,1,5.33,3,43.61,43.61,0,0,0,5.31,3,11.84,11.84,0,0,0,10.63,0,43.71,43.71,0,0,0,5.32-3,42.26,42.26,0,0,1,5.32-3,14.32,14.32,0,0,1,2.11-.74,13.91,13.91,0,0,1,2-.37,9.91,9.91,0,0,1,1.22-.15,10.75,10.75,0,0,1,1.86.23c.49.09,1,.21,1.49.34a17.66,17.66,0,0,1,2,.69,43.61,43.61,0,0,1,5.31,3,45.17,45.17,0,0,0,5.31,3,11.86,11.86,0,0,0,10.64,0,44.48,44.48,0,0,0,5.32-3,43.61,43.61,0,0,1,5.31-3,13.37,13.37,0,0,1,2.81-.92A2.3,2.3,0,0,0,127,104v-3.35A1.56,1.56,0,0,0,125.19,99a14,14,0,0,0-2.81.93A43.51,43.51,0,0,0,117.07,103Z"/><path class="cls-2" d="M89.34,26.93V21.19a1.87,1.87,0,0,0-1.84-1.91H48.78a1.89,1.89,0,0,1-1.85-1.92V1.91c0-1-.44-1.91-1-1.91s-1,.86-1,1.91V17.36a1.88,1.88,0,0,1-1.84,1.92H35.65a1.87,1.87,0,0,0-1.84,1.91v5.74A1.88,1.88,0,0,1,32,28.84h-19a1.88,1.88,0,0,0-1.85,1.91V42.59a1.89,1.89,0,0,0,1.85,1.92h97.33a1.88,1.88,0,0,0,1.85-1.92V30.75a1.88,1.88,0,0,0-1.85-1.91H91.19A1.88,1.88,0,0,1,89.34,26.93Zm-62.76,12H15.82v-5.1H26.58Zm16.48,0H32.28v-5.1H43.06Zm16.47,0H48.76v-5.1H59.53Zm16.47,0H65.23v-5.1H76Zm16.48,0H81.7v-5.1H92.48Zm16.47,0H98.18v-5.1H109Z"/><path class="cls-3" d="M115.41,151.88h-7.78l-1-5.83c-2.17-12.12-13.45-20.92-26.83-20.92H43c-11.14,0-20.54,7.35-22.35,17.47L19,151.88H11.23a6.5,6.5,0,0,0-6.49,6.5v2.72a6.5,6.5,0,0,0,6.49,6.49h4.54a14.55,14.55,0,0,0-5.4,11.32v17.72a14.54,14.54,0,0,0,5.29,11.24v9.51a9.85,9.85,0,0,0,9.85,9.85H27a9.84,9.84,0,0,0,9.84-9.85v-6.17h53v6.17a9.84,9.84,0,0,0,9.84,9.85h1.5a9.85,9.85,0,0,0,9.84-9.85v-9.51a14.54,14.54,0,0,0,5.29-11.24V178.91a14.52,14.52,0,0,0-5.4-11.32h4.54a6.49,6.49,0,0,0,6.49-6.49v-2.72A6.49,6.49,0,0,0,115.41,151.88Zm-89.16,35.7a6.46,6.46,0,1,1,6.46-6.45A6.45,6.45,0,0,1,26.25,187.58ZM25,164.33c-.39,0-.77,0-1.15.06l3.68-20.58C28.7,137,35.24,132.05,43,132.05H79.76c10,0,18.44,6.4,20,15.22l3.06,17.12c-.38,0-.76-.06-1.15-.06Zm75.44,23.25a6.46,6.46,0,1,1,6.45-6.45A6.46,6.46,0,0,1,100.39,187.58Z"/></g></g></svg>