<svg xmlns="http://www.w3.org/2000/svg" viewBox="0 0 267.09 214.42"><defs><style>.cls-1{fill:#d2417c;}.cls-2{fill:#fff;}</style></defs><title>perk_discount</title><g id="Layer_2" data-name="Layer 2"><g id="Layer_1-2" data-name="Layer 1"><rect class="cls-1" x="115.48" y="123.39" width="58.89" height="91.03"/><rect class="cls-1" x="107.07" y="83.29" width="67.3" height="33.09"/><rect class="cls-1" x="199.79" y="123.39" width="58.89" height="91.03"/><rect class="cls-1" x="199.79" y="83.29" width="67.3" height="33.09"/><path class="cls-1" d="M190,77.39l-2.88-.08-2.88.08c-.15,0-3.66.1-8.93.1C151,77.49,135.45,75.66,129,72a27.17,27.17,0,1,1,26.61-47.37c9.88,5.54,25.49,31,31.47,41.19,6-10.2,21.59-35.65,31.46-41.19A27.17,27.17,0,1,1,245.15,72c-6.45,3.63-22,5.46-46.26,5.46C193.62,77.49,190.11,77.39,190,77.39ZM150.12,34.44A15.95,15.95,0,1,0,134.5,62.25c3.41,1.92,15.65,4,39.75,4C166,52.78,155.24,37.31,150.12,34.44Zm95.64,6.09A15.94,15.94,0,0,0,224,34.44c-5.12,2.87-15.86,18.33-24.13,31.84,24.1-.06,36.34-2.11,39.75-4a15.94,15.94,0,0,0,6.1-21.72Z"/><path class="cls-1" d="M64.34,87.07a14.49,14.49,0,0,1-8-1.22l-48-22c-7.1-3.26-10.32-11.41-7.2-18.2L18.58,7.75C21.7,1,30-1.91,37.07,1.34l48,22a14.59,14.59,0,0,1,6.12,5.25l14.94,22.81a13.37,13.37,0,0,1,1.08,12.95l-.8,1.73-5.58-2.56a8,8,0,1,0-3.7,8.06l5.58,2.57-.79,1.73a13.41,13.41,0,0,1-10.53,7.63l-27,3.53m53.2-10.94a2.5,2.5,0,0,0-1.29-3.3L93.84,62.54a2.46,2.46,0,1,0-2,4.47L114.2,77.3a2.5,2.5,0,0,0,3.34-1.17"/><path class="cls-2" d="M27.06,34.55v-.12c0-5.87,4.08-10.61,10.12-10.61s10,4.68,10,10.49v.12c0,5.8-4.08,10.6-10.12,10.6S27.06,40.35,27.06,34.55Zm13.91,0v-.12c0-2.79-1.53-5.22-3.9-5.22s-3.8,2.37-3.8,5.1v.12c0,2.78,1.55,5.21,3.91,5.21S41,37.21,41,34.55ZM34.34,61.44,60.82,25.19a3,3,0,0,1,2.43-1.25A2.78,2.78,0,0,1,66,26.73a2.94,2.94,0,0,1-.65,1.89L38.9,64.87a3,3,0,0,1-2.43,1.25,2.78,2.78,0,0,1-2.78-2.79A3.33,3.33,0,0,1,34.34,61.44Zm18.19-5.69v-.12c0-5.86,4.08-10.6,10.12-10.6s10,4.68,10,10.48v.12c0,5.81-4.08,10.6-10.12,10.6S52.53,61.56,52.53,55.75Zm13.91,0v-.12c0-2.78-1.53-5.21-3.9-5.21s-3.8,2.37-3.8,5.09v.12c0,2.79,1.54,5.21,3.91,5.21S66.44,58.42,66.44,55.75Z"/></g></g></svg>