<svg xmlns="http://www.w3.org/2000/svg" viewBox="0 0 277.22 321.71"><defs><style>.cls-1{fill:#d1417c;}.cls-2{fill:#f69b1d;}</style></defs><title>re-think2</title><g id="Layer_2" data-name="Layer 2"><g id="Layer_1-2" data-name="Layer 1"><path class="cls-1" d="M276.86,228.25c-8.13-58.2-32.09-82.83-71.25-82.83-13.74,0-26.73,5.24-38.29,14.58l-7.11,5.87c.83,2.73,1.58,5.52,2.21,8.4,16.38,4.94,28.28,19.7,28.28,37.15,0,18.73-13.71,34.36-32,38.07,19.82,8.07,34,29.76,34.19,55.32a102,102,0,0,1-.68,11.66c6.73.35,15.69-.76,27.66-4.19C275.61,296.34,278.68,241.39,276.86,228.25Z"/><path class="cls-2" d="M160.21,165.87c-10.47-34.64-37.11-56.93-77.91-57.16C12.11,108.32-17.8,160.05,10.72,251,23,290.3,60.51,323.77,90,321.61c0,0-2.43-16.18,2.16-32.57,5.18-21.9,21.51-38.6,41.49-42.19l.08,0c-13.93-6.12-23.64-19.65-23.64-35.39,0-26.32,26.51-44.95,52.34-37.15C161.79,171.39,161,168.6,160.21,165.87Z"/><path class="cls-2" d="M138.46,50.46A50.47,50.47,0,1,1,88,0,50.47,50.47,0,0,1,138.46,50.46Z"/><path class="cls-1" d="M243.72,85.11a48.47,48.47,0,1,1-48.47-48.47A48.47,48.47,0,0,1,243.72,85.11Z"/></g></g></svg>